<?xml version="1.0" encoding="UTF-8"?>
<svg id="Layer_1" data-name="Layer 1" xmlns="http://www.w3.org/2000/svg" viewBox="0 0 216.85 114.55">
  <defs>
    <style>
      .cls-1 {
        fill: #196191;
      }

      .cls-1, .cls-2 {
        stroke-width: 0px;
      }

      .cls-3, .cls-4, .cls-5, .cls-6 {
        fill: none;
        stroke-miterlimit: 10;
      }

      .cls-3, .cls-5 {
        stroke-width: .7px;
      }

      .cls-3, .cls-6 {
        stroke: #ec6625;
      }

      .cls-7 {
        letter-spacing: .14em;
      }

      .cls-2 {
        fill: #ec6625;
      }

      .cls-4, .cls-5 {
        stroke: #196191;
      }

      .cls-4, .cls-6 {
        stroke-width: 1.2px;
      }

      .cls-8 {
        letter-spacing: .17em;
      }

      .cls-9 {
        letter-spacing: .07em;
      }

      .cls-10 {
        letter-spacing: .14em;
      }

      .cls-11 {
        fill: #010101;
        font-family: WantedSansVariable-Regular, 'Wanted Sans Variable';
        font-size: 8.47px;
        font-variation-settings: 'wght' 400;
      }

      .cls-12 {
        letter-spacing: .12em;
      }
    </style>
  </defs>
  <g>
    <g>
      <path class="cls-2" d="M32.86,79.65c0,1.39-.32,2.69-.95,3.9-.64,1.2-1.51,2.25-2.61,3.15-1.1.89-2.38,1.6-3.85,2.12-1.46.52-3.02.77-4.67.77h-11.56l1.91-10.76h5.34l-1.11,6.32h6.19c.83,0,1.6-.11,2.31-.34.71-.22,1.33-.54,1.86-.95.52-.41.94-.91,1.25-1.48.31-.58.46-1.21.46-1.9,0-.53-.11-1.02-.32-1.47-.22-.45-.52-.83-.9-1.16-.39-.33-.85-.58-1.39-.76-.54-.18-1.14-.27-1.79-.27h-11.56l4.21-4.49h8.16c1.36,0,2.59.18,3.7.54,1.11.36,2.06.86,2.85,1.51.79.65,1.4,1.42,1.83,2.31.43.89.65,1.88.65,2.97Z"/>
      <path class="cls-2" d="M39.32,89.59h-5.34l3.07-17.27h5.32l-3.05,17.27Z"/>
      <path class="cls-2" d="M55.21,78.8h11.05l-1.91,10.79h-11.85c-1.34,0-2.57-.19-3.68-.58-1.11-.39-2.06-.92-2.84-1.6-.78-.68-1.39-1.48-1.82-2.41-.43-.93-.65-1.94-.65-3.02,0-1.41.32-2.71.95-3.9.64-1.19,1.5-2.21,2.58-3.06,1.08-.85,2.36-1.51,3.82-1.99,1.46-.47,3.02-.71,4.67-.71h12.36l-4.26,4.49h-8.9c-.79,0-1.54.12-2.26.36-.71.24-1.34.58-1.87,1.01-.53.43-.96.94-1.28,1.52-.32.59-.48,1.22-.48,1.91,0,1.08.4,1.94,1.2,2.58.8.64,1.87.95,3.21.95h6.56l.44-2.5h-8.96l3.9-3.85Z"/>
      <path class="cls-2" d="M72.84,89.59h-5.34l3.07-17.27h5.32l-3.05,17.27Z"/>
      <path class="cls-1" d="M84.43,72.32l5.76,11.46,10.12-11.46h6.32l-13.83,15.61c-.45.5-.98.95-1.6,1.34s-1.35.59-2.19.59-1.45-.19-1.92-.55c-.47-.37-.86-.83-1.15-1.38l-8.03-15.61h6.53Z"/>
      <path class="cls-1" d="M127.92,89.59h-7.15l-3.05-4.57h-8.21l-.8,4.57h-5.34l1.55-8.83h15.02c.45,0,.87-.05,1.28-.15.4-.1.76-.25,1.06-.44.3-.19.54-.43.72-.71.18-.28.27-.6.27-.94,0-.57-.23-.99-.7-1.28-.46-.28-1.11-.43-1.94-.43h-15.02l4.28-4.49h11.1c.89,0,1.81.08,2.75.23.94.15,1.79.43,2.55.84.77.4,1.39.94,1.87,1.61.48.67.72,1.52.72,2.56,0,.77-.13,1.51-.4,2.22-.27.71-.65,1.34-1.14,1.91-.49.57-1.08,1.05-1.77,1.45-.69.4-1.45.67-2.27.83.24.22.51.51.81.85.3.34.69.82,1.17,1.42l2.61,3.36Z"/>
      <path class="cls-1" d="M135.25,89.59h-5.34l3.07-17.27h5.32l-3.05,17.27Z"/>
      <path class="cls-1" d="M159.43,85.15l-4.23,4.44h-16.62l3.07-17.27h19.98l-4.26,4.49h-11.18l-.36,2.06h13.65l-3.72,3.92h-10.63l-.41,2.35h14.71Z"/>
      <path class="cls-1" d="M177.91,89.87c-.36,0-.69-.06-.99-.17-.3-.11-.63-.37-.99-.76l-8.9-9.5-1.78,10.14h-4.85l2.5-14.32c.1-.57.27-1.06.49-1.47.22-.41.49-.75.81-1.01.32-.26.67-.45,1.05-.57.38-.12.77-.18,1.16-.18.33,0,.65.06.98.17.33.11.66.37,1.01.76l8.9,9.5,1.81-10.14h4.85l-2.56,14.3c-.1.57-.27,1.06-.5,1.47-.23.41-.5.75-.81,1.02-.31.27-.65.46-1.03.58-.38.12-.76.18-1.14.18Z"/>
      <path class="cls-1" d="M207.69,79.65c0,1.39-.32,2.69-.95,3.9-.64,1.2-1.51,2.25-2.61,3.15-1.1.89-2.38,1.6-3.85,2.12-1.46.52-3.02.77-4.67.77h-11.56l1.91-10.76h5.34l-1.11,6.32h6.19c.83,0,1.6-.11,2.31-.34.71-.22,1.33-.54,1.86-.95.52-.41.94-.91,1.25-1.48.31-.58.46-1.21.46-1.9,0-.53-.11-1.02-.32-1.47-.22-.45-.52-.83-.9-1.16-.39-.33-.85-.58-1.39-.76s-1.14-.27-1.79-.27h-11.56l4.21-4.49h8.16c1.36,0,2.59.18,3.7.54,1.11.36,2.06.86,2.85,1.51.79.65,1.4,1.42,1.83,2.31.43.89.65,1.88.65,2.97Z"/>
    </g>
    <text class="cls-11" transform="translate(9.16 103.11)"><tspan class="cls-7" x="0" y="0">BE</tspan><tspan class="cls-9" x="12.12" y="0">T</tspan><tspan class="cls-10" x="18.06" y="0">AAL</tspan><tspan class="cls-12" x="37.92" y="0">B</tspan><tspan class="cls-10" x="43.94" y="0">A</tspan><tspan class="cls-8" x="51" y="0">R</tspan><tspan class="cls-10" x="57.35" y="0">E COMPUTE</tspan><tspan class="cls-8" x="115.72" y="0">R</tspan><tspan class="cls-7" x="122.07" y="0">HULP AAN HUIS</tspan></text>
  </g>
  <g>
    <g>
      <g>
        <line class="cls-4" x1="150.12" y1="51.07" x2="135.46" y2="36.4"/>
        <polyline class="cls-4" points="72.99 51.8 85.3 39.49 88.61 36.18 91.97 32.82 95.08 29.71 108.62 16.17 121.86 29.41"/>
        <line class="cls-4" x1="143.75" y1="51.31" x2="132.26" y2="39.82"/>
        <line class="cls-4" x1="79.49" y1="52.28" x2="88.81" y2="42.96"/>
        <line class="cls-4" x1="136.97" y1="50.88" x2="129.07" y2="42.99"/>
        <line class="cls-4" x1="131.15" y1="50.88" x2="126.4" y2="46.13"/>
        <polyline class="cls-4" points="66.46 51.23 81.75 35.94 85.06 32.63 88.43 29.27 91.46 26.24 108.37 9.32 124.78 25.73"/>
        <polyline class="cls-4" points="88.22 43.55 91.97 39.8 108.8 22.97 118.63 32.55 115.67 35.41 109.54 29.73 86.4 51.99"/>
        <circle class="cls-5" cx="150.82" cy="51.63" r="1.09"/>
        <circle class="cls-5" cx="144.53" cy="52.06" r="1.09"/>
        <circle class="cls-5" cx="137.87" cy="51.76" r="1.09"/>
        <circle class="cls-5" cx="131.82" cy="51.76" r="1.09"/>
        <path class="cls-5" d="M85.89,53.76c-.64,0-1.15-.56-1.08-1.21.06-.5.46-.9.96-.96.66-.07,1.21.44,1.21,1.08,0,.78-.67,1.09-1.09,1.09Z"/>
        <circle class="cls-5" cx="79.09" cy="52.89" r="1.09"/>
        <circle class="cls-5" cx="72.27" cy="52.67" r="1.09"/>
        <circle class="cls-5" cx="65.64" cy="52.13" r="1.09"/>
      </g>
      <g>
        <line class="cls-6" x1="85.62" y1="20.83" x2="91.46" y2="26.24"/>
        <line class="cls-6" x1="125.01" y1="26.36" x2="130.84" y2="20.88"/>
        <line class="cls-6" x1="79.09" y1="19.94" x2="88.43" y2="29.27"/>
        <path class="cls-6" d="M72.7,20.27s6.05,6.05,12.36,12.36"/>
        <line class="cls-6" x1="81.75" y1="35.94" x2="66.27" y2="20.46"/>
        <polyline class="cls-6" points="102.29 36.7 108.37 42.48 115.67 35.41 118.63 32.55 121.86 29.41 125.21 26.16"/>
        <circle class="cls-3" cx="151.21" cy="20.52" r="1.09"/>
        <circle class="cls-3" cx="65.66" cy="19.88" r="1.09"/>
        <circle class="cls-3" cx="72.03" cy="19.69" r="1.09"/>
        <circle class="cls-3" cx="78.45" cy="19.28" r="1.09"/>
        <circle class="cls-3" cx="84.81" cy="19.9" r="1.09"/>
        <circle class="cls-3" cx="131.44" cy="20.22" r="1.09"/>
        <circle class="cls-3" cx="144.84" cy="19.94" r="1.09"/>
        <circle class="cls-3" cx="138.01" cy="19.9" r="1.09"/>
      </g>
      <path class="cls-6" d="M98.7,39.77l9.67,9.67.17.17c.15-.15.31-.31.31-.31l28.75-28.75"/>
      <path class="cls-6" d="M95.17,43.38l13.01,13.01.2.2c3-3,35.91-35.91,35.91-35.91"/>
      <path class="cls-6" d="M150.75,21.12l-42.28,42.28-.27.27c-.22-.22-.44-.44-.44-.44l-16.38-16.38"/>
    </g>
    <line class="cls-4" x1="77.36" y1="40.33" x2="93.67" y2="24.03"/>
    <line class="cls-4" x1="90.49" y1="48.06" x2="104.03" y2="35.03"/>
  </g>
</svg>